<?xml version="1.0" standalone="no"?><!DOCTYPE svg PUBLIC "-//W3C//DTD SVG 1.1//EN" "http://www.w3.org/Graphics/SVG/1.1/DTD/svg11.dtd"><svg t="1599624350874" class="icon" viewBox="0 0 1024 1024" version="1.1" xmlns="http://www.w3.org/2000/svg" p-id="1191" xmlns:xlink="http://www.w3.org/1999/xlink" width="200" height="200"><defs><style type="text/css"></style></defs><path d="M928.382896 791.521828c-16.965943-46.689367-41.579822-89.948478-73.155583-128.575208-51.760002-63.320477-120.315971-111.082951-196.762552-137.862498 12.559856-8.716946 24.437758-18.60837 35.477038-29.648675 48.352273-48.351249 74.981299-112.635269 74.981299-181.013069 0-68.3778-26.629026-132.662844-74.981299-181.013069-48.351249-48.349201-112.634245-74.976179-181.00795-74.976179-68.3778 0-132.662844 26.626978-181.012045 74.976179s-74.976179 112.634245-74.976179 181.013069c0 68.3778 26.626978 132.662844 74.976179 181.012045 10.997298 10.997298 22.827073 20.858004 35.334708 29.549351-76.436342 26.701727-144.996406 74.372044-196.810678 137.613676-31.667918 38.653353-56.356545 81.956494-73.376758 128.70525-17.616156 48.38504-26.548133 99.258295-26.548133 151.205681 0 12.852708 10.419786 23.272495 23.272495 23.272495s23.271471-10.419786 23.271471-23.272495c0-184.927657 130.697871-347.138828 311.032057-386.437274 26.902422 9.421428 55.490277 14.340518 84.837909 14.340518 29.29541 0 57.834115-4.902706 84.696603-14.293416 180.095604 39.415177 310.672648 201.692905 310.672648 386.391196 0 12.852708 10.419786 23.272495 23.272495 23.272495s23.272495-10.419786 23.272495-23.272495C954.847064 890.641889 945.942734 839.842359 928.382896 791.521828zM303.487542 314.423402c0-115.489037 93.95727-209.446307 209.445283-209.446307 115.488014 0 209.445283 93.95727 209.445283 209.446307 0 115.489037-93.95727 209.445283-209.445283 209.445283C397.444811 523.868686 303.487542 429.91244 303.487542 314.423402z" p-id="1192"></path></svg>