<?xml version="1.0" standalone="no"?><!DOCTYPE svg PUBLIC "-//W3C//DTD SVG 1.1//EN" "http://www.w3.org/Graphics/SVG/1.1/DTD/svg11.dtd"><svg t="1599624504921" class="icon" viewBox="0 0 1024 1024" version="1.1" xmlns="http://www.w3.org/2000/svg" p-id="3409" xmlns:xlink="http://www.w3.org/1999/xlink" width="200" height="200"><defs><style type="text/css"></style></defs><path d="M510.7 509.5m-400.3 0a400.3 400.3 0 1 0 800.6 0 400.3 400.3 0 1 0-800.6 0Z" fill="#1296db" p-id="3410"></path><path d="M748.1 727c-9.6-48.3-32-92.8-65.4-128.6-31.3-33.6-69.8-56.9-111.7-68.3 53.5-23.4 91-76.8 91-138.8 0-83.4-67.9-151.3-151.3-151.3s-151.3 67.9-151.3 151.3c0 62 37.5 115.4 91 138.8-41.9 11.4-80.4 34.7-111.7 68.3-33.4 35.8-55.8 80.2-65.4 128.6-0.9 4.7 0.5 9.6 3.8 13.1l0.3 0.3c8.3 8.7 23 4.5 25.4-7.3 20.6-103.3 106.1-180.9 208-180.9 102 0 187.4 77.6 208 180.9 2.4 11.8 17.1 16.1 25.4 7.3l0.3-0.3c3.1-3.6 4.6-8.4 3.6-13.1zM389.3 391.4c0-66.9 54.4-121.3 121.3-121.3s121.3 54.4 121.3 121.3-54.4 121.3-121.3 121.3c-66.8 0-121.3-54.4-121.3-121.3z" fill="#ffffff" p-id="3411"></path></svg>